<svg aria-hidden="true" style="position:absolute;width:0;height:0;overflow:hidden" xmlns="http://www.w3.org/2000/svg">
    <defs>
        <!-- Hero btn icon -->
        <symbol id="icon-arrow-right" viewBox="0 0 32 32">
            <path d="M27.129 16.815c0.122-0.317 0.153-0.666 0.092-1.002-0.063-0.345-0.218-0.647-0.438-0.889l0.001 0.001-6.378-6.925c-0.142-0.161-0.314-0.291-0.508-0.384l-0.010-0.004c-0.184-0.088-0.401-0.14-0.629-0.14-0.218 0-0.426 0.047-0.613 0.132l0.009-0.004c-0.196 0.087-0.375 0.215-0.524 0.378-0.147 0.16-0.265 0.349-0.345 0.557l-0.004 0.012c-0.076 0.195-0.119 0.42-0.119 0.656 0 0.246 0.048 0.48 0.134 0.695l-0.004-0.013c0.084 0.212 0.205 0.403 0.358 0.563l3.658 3.972h-15.284c-0.422 0-0.829 0.182-1.127 0.508-0.29 0.32-0.467 0.746-0.467 1.213 0 0.004 0 0.007 0 0.011v-0.001c0 0.46 0.167 0.9 0.467 1.225s0.704 0.508 1.127 0.508h15.284l-3.657 3.971c-0.151 0.16-0.273 0.349-0.356 0.561-0.081 0.201-0.128 0.434-0.128 0.678 0 0.473 0.177 0.904 0.467 1.232l-0.002-0.002c0.15 0.161 0.327 0.291 0.524 0.378 0.177 0.081 0.385 0.128 0.603 0.128 0.228 0 0.445-0.052 0.638-0.144l-0.009 0.004c0.195-0.092 0.371-0.223 0.518-0.388l6.378-6.927c0.147-0.16 0.265-0.352 0.343-0.563z"></path>
        </symbol>
        <!-- Point hero add text icon -->
        <symbol id="icon-point" viewBox="0 0 32 32">
            <path d="M32 16c0 8.837-7.163 16-16 16s-16-7.163-16-16c0-8.837 7.163-16 16-16s16 7.163 16 16z"></path>
        </symbol>
    </defs>
</svg>